<svg id="visual" viewBox="0 0 675 900" width="675" height="900" xmlns="http://www.w3.org/2000/svg" xmlns:xlink="http://www.w3.org/1999/xlink" version="1.1"><rect x="0" y="0" width="675" height="900" fill="#051947"></rect><defs><linearGradient id="grad1_0" x1="0%" y1="100%" x2="100%" y2="0%"><stop offset="30%" stop-color="#bffc00" stop-opacity="1"></stop><stop offset="70%" stop-color="#bffc00" stop-opacity="1"></stop></linearGradient></defs><defs><linearGradient id="grad1_1" x1="0%" y1="100%" x2="100%" y2="0%"><stop offset="30%" stop-color="#bffc00" stop-opacity="1"></stop><stop offset="70%" stop-color="#0093a8" stop-opacity="1"></stop></linearGradient></defs><defs><linearGradient id="grad1_2" x1="0%" y1="100%" x2="100%" y2="0%"><stop offset="30%" stop-color="#051947" stop-opacity="1"></stop><stop offset="70%" stop-color="#0093a8" stop-opacity="1"></stop></linearGradient></defs><defs><linearGradient id="grad2_0" x1="0%" y1="100%" x2="100%" y2="0%"><stop offset="30%" stop-color="#bffc00" stop-opacity="1"></stop><stop offset="70%" stop-color="#bffc00" stop-opacity="1"></stop></linearGradient></defs><defs><linearGradient id="grad2_1" x1="0%" y1="100%" x2="100%" y2="0%"><stop offset="30%" stop-color="#0093a8" stop-opacity="1"></stop><stop offset="70%" stop-color="#bffc00" stop-opacity="1"></stop></linearGradient></defs><defs><linearGradient id="grad2_2" x1="0%" y1="100%" x2="100%" y2="0%"><stop offset="30%" stop-color="#0093a8" stop-opacity="1"></stop><stop offset="70%" stop-color="#051947" stop-opacity="1"></stop></linearGradient></defs><g transform="translate(675, 900)"><path d="M-253.1 0C-250.6 -34 -248.1 -68.1 -233.9 -96.9C-219.6 -125.7 -193.5 -149.2 -167.6 -167.6C-141.7 -185.9 -115.9 -199.1 -88 -212.5C-60.1 -225.9 -30.1 -239.5 0 -253.1L0 0Z" fill="#005492"></path><path d="M-168.7 0C-167.1 -22.7 -165.4 -45.4 -155.9 -64.6C-146.4 -83.8 -129 -99.5 -111.7 -111.7C-94.4 -124 -77.3 -132.7 -58.7 -141.7C-40.1 -150.6 -20 -159.7 0 -168.7L0 0Z" fill="#00cf7b"></path><path d="M-84.4 0C-83.5 -11.3 -82.7 -22.7 -78 -32.3C-73.2 -41.9 -64.5 -49.7 -55.9 -55.9C-47.2 -62 -38.6 -66.4 -29.3 -70.8C-20 -75.3 -10 -79.8 0 -84.4L0 0Z" fill="#bffc00"></path></g><g transform="translate(0, 0)"><path d="M253.1 0C245.5 30.9 237.8 61.9 227.3 94.1C216.7 126.4 203.3 159.9 179 179C154.7 198 119.6 202.6 88 212.5C56.4 222.4 28.2 237.8 0 253.1L0 0Z" fill="#005492"></path><path d="M168.8 0C163.7 20.6 158.6 41.3 151.5 62.8C144.5 84.3 135.5 106.6 119.3 119.3C103.1 132 79.8 135 58.7 141.7C37.6 148.3 18.8 158.5 0 168.8L0 0Z" fill="#00cf7b"></path><path d="M84.4 0C81.8 10.3 79.3 20.6 75.8 31.4C72.2 42.1 67.8 53.3 59.7 59.7C51.6 66 39.9 67.5 29.3 70.8C18.8 74.1 9.4 79.3 0 84.4L0 0Z" fill="#bffc00"></path></g></svg>