<svg id="visual" viewBox="0 0 675 900" width="675" height="900" xmlns="http://www.w3.org/2000/svg" xmlns:xlink="http://www.w3.org/1999/xlink" version="1.1"><rect x="0" y="0" width="675" height="900" fill="#1035a9"></rect><path d="M0 189L14 198.7C28 208.3 56 227.7 84.2 231.2C112.3 234.7 140.7 222.3 168.8 205.5C197 188.7 225 167.3 253.2 162.7C281.3 158 309.7 170 337.8 164.5C366 159 394 136 422 140C450 144 478 175 506.2 175.2C534.3 175.3 562.7 144.7 590.8 147.7C619 150.7 647 187.3 661 205.7L675 224L675 0L661 0C647 0 619 0 590.8 0C562.7 0 534.3 0 506.2 0C478 0 450 0 422 0C394 0 366 0 337.8 0C309.7 0 281.3 0 253.2 0C225 0 197 0 168.8 0C140.7 0 112.3 0 84.2 0C56 0 28 0 14 0L0 0Z" fill="#0f2276" stroke-linecap="round" stroke-linejoin="miter"></path></svg>